PathFileType	4	(X/Y/Z)	./resultDataOpenSim/trcMotMarkerGrf/sub06/qtm-01-05.trc
DataRate	CameraRate	NumFrames	NumMarkers	Units	OrigDataRate	OrigDataStartFrame	OrigNumFrames
250.000000	250.000000	14	24	m	250.000000	315	503
Frame#	Time	L.Toe.Tip			R.Toe.Tip			L.Ankle.Lat			R.Ankle.Lat			L.Ankle.Med			R.Ankle.Med			L.Heel			R.Heel			L.Knee.Lat			R.Knee.Lat			L.Knee.Med			R.Knee.Med			L.Thigh.Upper			R.Thigh.Upper			L.ASIS			R.ASIS			V.Sacral			L.Acromium			R.Acromium			C7			L.Elbow			R.Elbow			L.Wrist.Lat			R.Wrist.Lat
		X1	Y1	Z1	X2	Y2	Z2	X3	Y3	Z3	X4	Y4	Z4	X5	Y5	Z5	X6	Y6	Z6	X7	Y7	Z7	X8	Y8	Z8	X9	Y9	Z9	X10	Y10	Z10	X11	Y11	Z11	X12	Y12	Z12	X13	Y13	Z13	X14	Y14	Z14	X15	Y15	Z15	X16	Y16	Z16	X17	Y17	Z17	X18	Y18	Z18	X19	Y19	Z19	X20	Y20	Z20	X21	Y21	Z21	X22	Y22	Z22	X23	Y23	Z23	X24	Y24	Z24

315	1.256	0.25098212	0.084584411	-0.056925583	0.81761567	0.035077339	0.11680593	0.25951798	0.21550969	-0.088919431	0.68096863	0.060155234	0.14496295	0.28136365	0.2185716	-0.0061749111	0.69831764	0.082524195	0.057552116	0.21689268	0.27318966	-0.038226739	0.62496917	0.039384911	0.087989674	0.59527257	0.39013333	-0.11121566	0.74069303	0.44517256	0.17295036	0.60309139	0.37482459	0.0089525609	0.70008153	0.43326242	0.050496955	0.57676456	0.78139955	-0.10535306	0.62861175	0.8051083	0.23466323	0.66083056	0.83260428	-0.074185399	0.70308167	0.85448579	0.16622361	0.49402384	0.91756875	0.076603102	0.60210103	1.3278729	-0.11997793	0.60025922	1.3054361	0.24313649	0.52546951	1.3573446	0.061367161	0.6160454	1.0015945	-0.18130428	0.48848284	1.0088707	0.29534272	0.82479446	0.87337177	-0.14399504	0.5845456	0.79539492	0.35830332
316	1.26	0.26669501	0.085256544	-0.056554773	0.8175588	0.0350705	0.11682955	0.27284153	0.21628549	-0.08851176	0.6809272	0.060136126	0.14504567	0.29455927	0.2197683	-0.005859648	0.69836725	0.082678357	0.057669458	0.22911653	0.27327887	-0.037795074	0.62493104	0.039499561	0.088028887	0.60738514	0.39204581	-0.1114876	0.74178727	0.44506592	0.17328522	0.61566423	0.37671863	0.0088042861	0.70173446	0.43347411	0.051027059	0.58300659	0.78336553	-0.10471533	0.63398229	0.80607172	0.23515577	0.6668521	0.83449199	-0.074089355	0.70892556	0.85574814	0.16700536	0.50022212	0.91923177	0.077112649	0.6078413	1.3296877	-0.11966666	0.60711238	1.3073183	0.24334364	0.53179162	1.3589942	0.061867981	0.62019646	1.0033854	-0.18057267	0.49722884	1.0100377	0.29641177	0.82781081	0.87326203	-0.14419991	0.59607518	0.79759514	0.35864905
317	1.264	0.28257476	0.085735211	-0.056212514	0.8175053	0.035065475	0.11685906	0.28628895	0.21680865	-0.088076662	0.68090237	0.06010525	0.14514857	0.30792347	0.22068324	-0.0055339912	0.69840082	0.082825523	0.05779339	0.24150668	0.27305519	-0.03729865	0.62489277	0.039619885	0.088077242	0.6194309	0.39411549	-0.11171561	0.74293645	0.4450398	0.17367927	0.6283042	0.37867802	0.0086319027	0.70324226	0.43372153	0.051537583	0.58922958	0.78537498	-0.10421518	0.63921669	0.80697848	0.2356782	0.67304295	0.83645434	-0.073772205	0.71471335	0.85700276	0.16782862	0.50654818	0.92089093	0.077605278	0.61354975	1.3315304	-0.1193556	0.61394438	1.3092416	0.24353212	0.53810026	1.3606137	0.062338826	0.62426106	1.0052462	-0.17983702	0.50609701	1.0112797	0.29752662	0.83074509	0.87320049	-0.14444647	0.60761887	0.79991156	0.35894676
318	1.268	0.29859725	0.086020612	-0.055926253	0.81745235	0.035063457	0.11689533	0.29984134	0.21708331	-0.087633227	0.6808444	0.060086578	0.14529077	0.32146257	0.22131455	-0.0052071506	0.69841798	0.082973671	0.057932882	0.25403646	0.27253853	-0.036739846	0.62484821	0.039753114	0.088150735	0.63143681	0.3963285	-0.11191815	0.74422831	0.44506698	0.17414365	0.64098178	0.38068718	0.0084628138	0.7045232	0.43402794	0.052057265	0.59549857	0.78742121	-0.10383115	0.64447366	0.80787624	0.23630879	0.67937869	0.83847792	-0.073332608	0.720447	0.85824868	0.16869319	0.51296431	0.92253568	0.078281703	0.61922907	1.3333891	-0.1190449	0.62075312	1.3111963	0.24370058	0.54438862	1.3622204	0.062785814	0.62825491	1.0071597	-0.17912366	0.51488767	1.0125468	0.29861854	0.83360953	0.8731858	-0.14474927	0.61921854	0.80237165	0.35921233
319	1.272	0.31474583	0.086110894	-0.055711972	0.81740039	0.035064481	0.11693815	0.31348056	0.21711954	-0.087203795	0.68071421	0.060104355	0.14548551	0.33516442	0.22166541	-0.0048821369	0.69842677	0.08313138	0.058090696	0.26670451	0.27174753	-0.036163945	0.62479553	0.03990842	0.088262739	0.64340206	0.39864867	-0.11210448	0.74562694	0.44511873	0.17462738	0.65367197	0.38274208	0.008326577	0.70559578	0.43439883	0.052585687	0.60190508	0.78950183	-0.10353487	0.64970465	0.80874925	0.23698487	0.68575158	0.84051095	-0.072945378	0.72612464	0.8594879	0.16958913	0.5194452	0.9241648	0.079183862	0.62487619	1.3352487	-0.11873759	0.62753651	1.3131704	0.24384705	0.55064241	1.3638475	0.063223428	0.63219629	1.0091067	-0.17847634	0.5234234	1.0138086	0.29961822	0.83640868	0.87321519	-0.14511141	0.63091056	0.80497614	0.35945877
320	1.276	0.33101293	0.086008035	-0.055570666	0.81735461	0.035067384	0.11698668	0.32719085	0.21693185	-0.086798838	0.68052583	0.060168525	0.14572066	0.34900703	0.22174199	-0.0045465867	0.69844025	0.083304262	0.058263061	0.27950836	0.27072423	-0.035642482	0.62473461	0.040091774	0.088426938	0.65528125	0.40104252	-0.11227248	0.74703711	0.44517128	0.17506916	0.66634795	0.38487241	0.0082088007	0.70670706	0.43479446	0.053032521	0.60848907	0.79161471	-0.10332984	0.6547457	0.80954299	0.23756764	0.69208452	0.8425145	-0.072698154	0.73174361	0.86072584	0.17050102	0.52592133	0.92577902	0.080111721	0.63049113	1.3370975	-0.11843293	0.63429509	1.3151525	0.24397249	0.55687073	1.3654942	0.063657866	0.63607774	1.0110764	-0.17791873	0.53169147	1.015073	0.30051957	0.83914107	0.87328317	-0.14552338	0.64264798	0.80767879	0.35967549
321	1.28	0.34739529	0.085718986	-0.055502645	0.81732095	0.035070507	0.11703922	0.34096852	0.21653182	-0.086409772	0.68035511	0.06026362	0.14595339	0.36297606	0.22155684	-0.0041921254	0.69846707	0.083494007	0.05844456	0.29242135	0.26951978	-0.035213685	0.62466483	0.040304013	0.088654796	0.66706752	0.40352297	-0.11245743	0.74839861	0.44521561	0.17546198	0.67899614	0.38710789	0.00810065	0.70809291	0.43517113	0.05330981	0.61519624	0.79374907	-0.10317832	0.65960154	0.81025703	0.23804563	0.6983286	0.84447557	-0.072549936	0.73730988	0.86197206	0.17141821	0.53231617	0.92737464	0.08084089	0.63608311	1.3389329	-0.11812601	0.64103444	1.3171342	0.24408222	0.56310452	1.3671216	0.064085198	0.63986992	1.0130582	-0.1774755	0.53982274	1.0163692	0.30138034	0.84180985	0.87338389	-0.14597405	0.65433163	0.81042347	0.3598346
322	1.284	0.36389418	0.085255232	-0.055514887	0.81730094	0.035073285	0.11709208	0.3548271	0.21592827	-0.086022391	0.6802704	0.060363655	0.1461436	0.37707062	0.2211305	-0.003830456	0.69850345	0.08370503	0.058637442	0.30542984	0.2681239	-0.034823683	0.62459341	0.040542454	0.088932459	0.67882566	0.40613051	-0.11271085	0.74970135	0.44525213	0.17585098	0.69155423	0.38946437	0.008034028	0.70973186	0.43552436	0.053432206	0.6219191	0.79588198	-0.10297631	0.66443584	0.81094826	0.23852798	0.70445803	0.84639724	-0.072391988	0.74283904	0.86323805	0.17234046	0.53860083	0.92894941	0.081338753	0.6416649	1.3407547	-0.11781245	0.64776314	1.3191091	0.24418278	0.56936288	1.3686971	0.064502027	0.64354356	1.0150323	-0.17720008	0.54796653	1.0177197	0.30227243	0.84442691	0.87351453	-0.14645955	0.66595248	0.81320532	0.35993649
323	1.288	0.38051889	0.084632836	-0.055613207	0.81729158	0.035076626	0.11713929	0.36878191	0.21513545	-0.085634652	0.68026935	0.060457102	0.14628639	0.39128939	0.22048674	-0.0034789471	0.69853904	0.083950387	0.058851378	0.31854541	0.2664657	-0.034366075	0.6245413	0.040803544	0.089206764	0.69056724	0.40885779	-0.11297906	0.75095079	0.44528469	0.17626969	0.70390334	0.39195765	0.0080355503	0.71134815	0.43588563	0.053503667	0.62859087	0.79798349	-0.10265737	0.66931065	0.81164674	0.23904849	0.71055089	0.84829922	-0.072102825	0.74834691	0.86453062	0.17327189	0.5447866	0.93050121	0.081710874	0.6472458	1.3425568	-0.11749127	0.65448558	1.3210699	0.24427707	0.57563176	1.3702257	0.064911766	0.64709908	1.0169823	-0.17710906	0.55621133	1.0191272	0.30324208	0.84700407	0.8736722	-0.14698458	0.67759778	0.81606287	0.36001551
324	1.292	0.39728784	0.083872366	-0.055790701	0.81728976	0.035081346	0.11717534	0.38283351	0.21416746	-0.085255515	0.68030758	0.060553469	0.14640181	0.40561757	0.21964571	-0.0031430373	0.6985707	0.084239457	0.059088064	0.33176772	0.26449947	-0.033787818	0.6245212	0.041083731	0.089432041	0.70220932	0.41163241	-0.1131128	0.75214526	0.44532703	0.17669919	0.71602146	0.39458522	0.0080999211	0.71265204	0.43627472	0.053629436	0.63524368	0.80002937	-0.10226942	0.67411598	0.81232249	0.23951352	0.71680731	0.8502084	-0.071584494	0.75384268	0.86584648	0.17420755	0.55090646	0.932021	0.082041414	0.65283425	1.3443291	-0.1171642	0.66119749	1.3230075	0.24436245	0.58188873	1.3717255	0.065317663	0.65058978	1.018912	-0.17708457	0.56456056	1.0205747	0.30429322	0.84954373	0.87384507	-0.14755978	0.68931118	0.81901475	0.3600892
325	1.296	0.41422986	0.082998708	-0.056029916	0.81729432	0.035087128	0.1171988	0.39697384	0.21302245	-0.08488777	0.68035377	0.060673414	0.14651263	0.4200318	0.2186224	-0.0028179784	0.69860344	0.084562277	0.059333102	0.34507442	0.26223357	-0.033114632	0.62451779	0.041380318	0.089617513	0.71372351	0.4143849	-0.11305571	0.75327952	0.44539797	0.17710387	0.7279856	0.39731248	0.0082233075	0.71370701	0.43665821	0.053828512	0.64197729	0.8020195	-0.10191122	0.67878433	0.81295079	0.23986689	0.72338068	0.85213338	-0.070822389	0.75933105	0.86717623	0.17513052	0.55700291	0.93349632	0.082344971	0.65843913	1.3460628	-0.1168327	0.66789159	1.3249117	0.24443495	0.58813211	1.3731928	0.06571729	0.65408984	1.020833	-0.17694158	0.57293976	1.0220309	0.30539257	0.8520425	0.87401581	-0.14819157	0.70104176	0.82203358	0.36013526
326	1.3	0.4313922	0.082036253	-0.056329046	0.81730383	0.035093164	0.11721295	0.41120201	0.21169032	-0.084520111	0.68040399	0.060827672	0.14663494	0.43450862	0.21742755	-0.0024959872	0.69864162	0.08489856	0.059568532	0.35844416	0.2596894	-0.032401488	0.62451181	0.041696067	0.089791234	0.7251903	0.41710322	-0.11290366	0.75435052	0.44550407	0.17747811	0.73984474	0.40010166	0.0083975523	0.7148912	0.43699868	0.054053269	0.64887195	0.80397788	-0.10163644	0.68345641	0.81357455	0.24021086	0.73017799	0.85405437	-0.069935654	0.76481553	0.86850891	0.17602551	0.56309607	0.93491823	0.082619061	0.66406261	1.3477487	-0.11649583	0.67456904	1.3267729	0.24449629	0.5943653	1.3746227	0.066114407	0.65763053	1.022742	-0.17660735	0.58125886	1.0234645	0.30650153	0.854501	0.87417554	-0.14887136	0.71272657	0.82507977	0.36012418
327	1.304	0.44883357	0.081001862	-0.056712142	0.81731559	0.035099459	0.11722323	0.4255276	0.21017579	-0.084139049	0.68046822	0.061004651	0.14677381	0.44903092	0.21606826	-0.0021653007	0.69868744	0.085236696	0.059786263	0.37187232	0.25687864	-0.031695784	0.62450529	0.042038966	0.089955179	0.73669471	0.41979834	-0.1127332	0.75535825	0.44563636	0.17783813	0.75162137	0.40293812	0.0085778514	0.7162934	0.43732864	0.054267507	0.6559207	0.80592826	-0.10144832	0.68833218	0.81426119	0.24068639	0.73694845	0.85594645	-0.069092765	0.77029711	0.86982999	0.17688951	0.56916353	0.936282	0.082883848	0.66969969	1.349379	-0.11615192	0.68123748	1.3285854	0.24455444	0.60057984	1.3760268	0.066520761	0.66119339	1.0246223	-0.17614993	0.58948515	1.024859	0.30760931	0.85692557	0.87432392	-0.14958432	0.72435128	0.82813732	0.36004923
328	1.308	0.46658892	0.079906016	-0.057197414	0.81732797	0.035106894	0.11723487	0.4399651	0.20849724	-0.083741283	0.68055052	0.061188304	0.14692629	0.46360802	0.21454717	-0.0018169799	0.69874477	0.08557829	0.059989098	0.38537162	0.25381077	-0.031026141	0.62451046	0.042411745	0.090101014	0.7482506	0.42244735	-0.11250536	0.75630744	0.44578092	0.17819554	0.76330471	0.4058265	0.0087271789	0.71752436	0.43771161	0.054438536	0.66304396	0.80787736	-0.10132667	0.69342792	0.81501847	0.24129024	0.74356497	0.85780264	-0.068358595	0.77577472	0.87112413	0.17772878	0.57516288	0.93758658	0.083160199	0.67534701	1.3509484	-0.11580177	0.68789771	1.3303447	0.24461574	0.60677561	1.3773989	0.066934944	0.66475217	1.0264617	-0.17566564	0.59764032	1.0262124	0.30872942	0.85932395	0.874458	-0.15032633	0.73593834	0.83121645	0.35992866
